<?xml version="1.0" encoding="UTF-8" standalone="no"?>
<svg height="351.16599" viewBox="0 0 274.99994 351.166" width="274.99994" xmlns="http://www.w3.org/2000/svg">
   <g transform="matrix(5.0893623 0 0 5.0893623 -.12270136 0)">
      <polygon fill="#292966" points="28.41 10.52 27.12 9.84 25.83 10.52 26.07 9.08 25.03 8.06 26.47 7.85 27.12 6.55 27.76 7.85 29.2 8.06 28.16 9.08"/>
      <polygon fill="#292966" points="7.98 16.82 6.69 16.15 5.4 16.82 5.65 15.39 4.6 14.37 6.04 14.16 6.69 12.86 7.33 14.16 8.78 14.37 7.73 15.39"/>
      <polygon fill="#292966" points="48.84 16.82 47.55 16.15 46.26 16.82 46.5 15.39 45.46 14.37 46.9 14.16 47.55 12.86 48.19 14.16 49.63 14.37 48.59 15.39"/>
      <path d="m27.33 68.71l-.33.29-.3-.24-.24-.17c-14.46-10.88-20.86-25.75-23.71-36.31a74.94 74.94 0 0 1-2.66-23.17l.08-1 1 .24c17.26 4.07 25.07-7 25.15-7.16l.26-.38.42-.81.45.79.28.38a19.33 19.33 0 0 0 6.09 5.13c5.44 3.05 11.86 3.74 19.09 2l1-.24.08 1a74.74 74.74 0 0 1-2.65 23.17c-2.86 10.61-9.34 25.48-23.77 36.31zm-25.54-58.45a77.13 77.13 0 0 0 2.65 21.57c2.74 10.17 8.89 24.41 22.56 34.91 13.75-10.5 19.89-24.74 22.63-34.91a76.4 76.4 0 0 0 2.65-21.57c-9.05 1.88-15.52-.28-19.4-2.48a22.08 22.08 0 0 1-5.88-4.71 22.25 22.25 0 0 1-5.8 4.71c-3.88 2.22-10.35 4.36-19.41 2.48z" fill="#292966"/>
      <circle cx="27.08" cy="29.24" fill="#b2def7" r="8.25"/>
      <rect fill="#292966" height=".30000001" width="16.049999" x="19.18" y="31.84"/>
      <path d="m18.88 32.21v-.31 0a4.8 4.8 0 0 0 1.48-.39 5.14 5.14 0 0 0  2.51-2.28l.13-.23.15.17a6 6 0 0 0 4 2.05 5.17 5.17 0 0 0  3.85-2.02l.14-.15.11.18c0 0 1.59 2.69 4 2.5v.3h-.25a4.2 4.2 0 0 1-2.88-1.27 7.25 7.25 0 0 1-1-1.22 5.36 5.36 0 0 1-4 2 6.11 6.11 0 0 1-4.08-2 5.41 5.41 0 0 1-2.56 2.23 5.51 5.51 0 0 1-1.6.44z" fill="#292966"/>
      <path d="m31.13 32.72a.15.15 0 0 1-.15-.15v-3.57a.15.15 0 0 1  .15-.15.16.16 0 0 1  .16.15v3.55a.16.16 0 0 1-.16.17z" fill="#292966"/>
      <path d="m23 32.72a.15.15 0 0 1-.15-.15v-3.57a.15.15 0 0 1  .15-.15.15.15 0 0 1  .15.15v3.55a.15.15 0 0 1-.15.17z" fill="#292966"/>
      <path d="m27.81 31.38v0c0 0 0 0 0 0l .72-4.73v-3.16l.43-.43.41.44v3.08l.54 3.84c0 0 0 0 0 0l-.55-3.85v-3l-.34-.37-.37.35v3.11l-.71 4.73c0 0-.11-.01-.13-.01z" fill="#292966"/>
      <path d="m28.83 31v0l-.83-.45a.025 0 90 0 0 0-.05.025 0-180 0 0  .05 0l .87.43c0 0 0 0 0 0z" fill="#292966"/>
      <path d="m28 30.37v0c0 0 0 0 0-.05l1.6-.7-1.43-.62c0 0 0 0 0 0 0 0 0 0 0 0l1.56.64-1.73.72z" fill="#292966"/>
      <path d="m28.22 28.81v0a .025 0 90 0 0 0-.05l1.22-.57-1-.68c0 0 0 0 0 0 0 0 0 0 0 0l1.14.75-1.34.62z" fill="#292966"/>
      <path d="m28.43 27.28v0l .84-.58-.73-.7v0c0 0 0 0 0 0l .73-.68h.05a.025 0-90 0 0 0 .05l-.71.65.73.61-.89.6c0 0-.01.05-.02.05z" fill="#292966"/>
      <path d="m29.3 25.53v0l-.75-.71c0 0 0 0 0 0l1.11-1.09.58.54c0 0 0 0 0 .05h-.05l-.56-.52-1.06 1 .73.69a.025 0-90 0 0 0 .05z" fill="#292966"/>
      <path d="m29.66 24.28v0l-.76-.71a.025 0-180 0 0  .05 0l .73.69.44-.3c0 0 0 0 0 .05l-.46.32z" fill="#292966"/>
      <path d="m30.84 24.28h-3.84c0 0 0 0 0 0 0 0 0 0 0 0l1.48-.71h.82l1.54.71c0 0 0 0 0 0 0 0 .02 0 0 0zm-3.66-.07h3.52l-1.4-.64h-.78z" fill="#292966"/>
      <path d="m29.28 24.91v0l-.72-.64c0 0 0 0 0 0l .74-.7v0l .73-.42h-2.22l.74.38c0 0 0 0 0 0 0 0 0 0 0 0l-.86-.44c0 0 0 0 0 0 0 0 0 0 0 0h2.48v0l-.83.47-.72.67.7.63z" fill="#292966"/>
      <path d="m28.54 25.39v0l .73-.68h.05a.025 0-90 0 0 0 .05l-.74.68z" fill="#292966"/>
      <path d="m29.3 24.42v0l-.73-.7-.42.54h-.05l-.39-.26a.025 0 90 0 0 0-.05.025 0-180 0 0  .05 0l .34.27.42-.54c0 0 0 0 0 0 0 0 0 0 0 0l .77.73z" fill="#292966"/>
      <path d="m27.74 24.27v0c0 0 0 0 0-.05l.35-.48v0 0l .47.47-.44-.44-.33.45z" fill="#292966"/>
      <path d="m30.82 25.79h-3.82c0 0 0 0 0 0l1.51-.79h.81l1.51.73c0 0 0 0 0 0zm-3.67-.07h3.53l-1.38-.67h-.77z" fill="#292966"/>
      <path d="m29.29 26.17c0 0 0 0 0 0l-.76-.69.75.7c0 0 .02-.01.01-.01z" fill="#292966"/>
      <path d="m29.41 27.42v0l-.87-.75c0 0 0 0 0 0l .75-.76c0 0 0 0 .05 0l-.73.74.85.73a.025 0-90 0 0 0 .05z" fill="#292966"/>
      <path d="m28.34 28.06v0c0 0 0 0 0-.05l1.06-.77c0 0 0 0 0 0a .025 0-90 0 0 0 .05l-1.07.76z" fill="#292966"/>
      <path d="m28.1 29.62v0c0 0 0 0 0 0l1.46-.71-1.25-.63c0 0 0 0 0 0l1.31.67c0 0 0 0 0 0l-1.52.73z" fill="#292966"/>
      <path d="m29.73 30.48v0l-1.66-.71c0 0 0 0 0 0 0 0 0 0 0 0l1.66.71c0 0 0 0 0 0 0 0 .01 0 0 0z" fill="#292966"/>
      <path d="m25.3 31l-.33-2.3v0-1.95l-.19-.22-.21.23v1.85 0l-.26 1.71c0 0 0 0 0 0l .25-1.71v-1.86c0 0 0 0 0 0l .25-.27h.05l.22.25v1.9l.33 2.3c0 0 0 0 0 0z" fill="#292966"/>
      <path d="m25.94 27.23h-2.36l.92-.45h.5l1 .45c0 0 0 0 0 0zm-2.22-.07h2.07l-.79-.39h-.46z" fill="#292966"/>
      <path d="m24.5 26.77v0l-.5-.25v0h1.51c0 0 0 0 0 0 0 0 0 0 0 0l-.49.23c0 0 0 0 0 0l .36-.18h-1.26l.4.19c0 0 0 0 0 0 0 0-.01.01-.02.01z" fill="#292966"/>
      <path d="m25.92 28.16h-2.36v0c0 0 0 0 0 0l .94-.43h.5l1 .43c0 0 0 0 0 0 0 0-.06 0-.08 0zm-2.21-.06h2.06l-.77-.37h-.45z" fill="#292966"/>
      <path d="m24.87 30.7c0 0 0 0 0 0 0 0 0 0 0 0l .37-.15c0 0 0 0 0 0a .025 0-90 0 0 0 .05l-.37.15z" fill="#292966"/>
      <path d="m25.23 30.64v0l-.95-.48c0 0 0 0 0 0 0 0 0 0 .05 0l .95.47c0 0-.03.01-.05.01z" fill="#292966"/>
      <path d="m24.3 30v0c0 0 0 0 0-.05l.8-.42c0 0 0 0 0 0 0 0 0 0 0 0l-.8.43z" fill="#292966"/>
      <path d="m24.38 29.58v0c0 0 0 0 0 0l .62-.43-.49-.38c0 0 0 0 0 0 0 0 0 0 0 0l .49-.57c0 0 0 0 .05 0l-.45.44.5.39c0 0 0 0 0 0l-.66.45z" fill="#292966"/>
      <path d="m25 28.73v0l-.46-.41c0 0 0 0 0 0l .46-.38v0c0 0 0 0 0 .05l-.43.36.44.38z" fill="#292966"/>
      <path d="m25 28v0l-.43-.48.64-.67.35.33c0 0 0 0 0 .05l-.33-.31-.6.62z" fill="#292966"/>
      <path d="m25.23 27.21c0 0 0 0 0 0l-.5-.42c0 0 0 0 .05 0l .47.41.25-.16a.03 0-90 0 0 0 .06l-.27.16z" fill="#292966"/>
      <path d="m25 27.62v0l-.7-.67-.18.24c0 0 0 0-.05 0l .2-.28c0 0 0 0 0 0v0l .73.7z" fill="#292966"/>
      <path d="m25 27.26v0l-.43-.38-.21.33c0 0 0 0 0 0 0 0 0 0 0-.05l.23-.36h.05l.46.41z" fill="#292966"/>
      <path d="m25 28.38v0l-.43-.45c0 0 0 0 0 0l .44-.41c0 0 0 0 0 .05l-.41.39.41.42a.025 0-90 0 0 0 .05z" fill="#292966"/>
      <path d="m24.45 29.09v0l .53-.41a.025 0-90 0 0 0 .05l-.53.41z" fill="#292966"/>
      <path d="m25.1 29.72v0l-.67-.47c0 0 0 0 0 0a .025 0-180 0 0  .05 0l .67.48c0 0 0 0 0 0z" fill="#292966"/>
      <path d="m24.46 30.44v0c0 0 0 0 0 0l .64-.3-.72-.4c0 0 0 0 0-.05 0-.05 0 0 0 0l .78.44c0 0 0 0 0 0 0 0 0 0 0 0l-.71.32z" fill="#292966"/>
      <path d="m24.53 27.2v0a .025 0 90 0 0 0-.05l.44-.43a.03535534 0-135 0 0  .05.05l-.45.43z" fill="#292966"/>
      <path d="m23.81 27.22h-.17c0 0 0 0 0 0a3.51 3.51 0 0 0 1.53-.26 3.08 3.08 0 0 0  1.83-2.72c0 0 0 0 0 0 0 0 0 0 0 0a3.15 3.15 0 0 1-1.81 2.76 3.65 3.65 0 0 1-1.38.22z" fill="#292966"/>
      <path d="m25.93 27.21v0c0 0 0 0 0 0a4.35 4.35 0 0 0 1.49-.34 8.78 8.78 0 0 0  3.42-2.59h.05a.025 0-90 0 0 0 .05 9 9 0 0 1-3.45 2.61 4.38 4.38 0 0 1-1.51.27z" fill="#292966"/>
      <path d="m23 32.72a1.62 1.62 0 0 1-1-.33c0 0 0 0 0-.06a.03 0-180 0 0  .06 0 1.69 1.69 0 0 0  2 0c0 0 0 0 .06 0 .06 0 0 0 0 .06a2 2 0 0 1-1.12.33z" fill="#292966"/>
      <path d="m25 32.72a1.66 1.66 0 0 1-1-.33c0 0 0 0 0-.06 0-.06 0 0 .06 0a1.67 1.67 0 0 0 2 0 .03 0-180 0 0  .06 0 .03 0-90 0 0  0 .06 2 2 0 0 1-1.12.33z" fill="#292966"/>
      <path d="m27 32.72a1.62 1.62 0 0 1-1-.33.03905125 0 129.80557 0 0  .05-.06 1.69 1.69 0 0 0  2 0c0 0 0 0 .06 0 .06 0 0 0 0 .06a2 2 0 0 1-1.11.33z" fill="#292966"/>
      <path d="m29.06 32.72a1.66 1.66 0 0 1-1-.33c0 0 0 0 0-.06a.035 0-180 0 0  .07 0 1.67 1.67 0 0 0  1.95 0 .03 0-180 0 0  .06 0 .03 0-90 0 0  0 .06 2 2 0 0 1-1.08.33z" fill="#292966"/>
      <path d="m31.07 32.72a1.62 1.62 0 0 1-1-.33.03905125 0 129.80557 0 0  .05-.06 1.69 1.69 0 0 0  2 0c0 0 0 0 .06 0 .06 0 0 0 0 .06a2 2 0 0 1-1.11.33z" fill="#292966"/>
      <path d="m33.08 32.72a1.66 1.66 0 0 1-1-.33.03 0 90 0 0  0-.06c0 0 0 0 .06 0a1.67 1.67 0 0 0 1.6.17.03 0-180 0 0  .06 0 .03 0-90 0 0  0 .06 1.76 1.76 0 0 1-.72.16z" fill="#292966"/>
      <path d="m21 32.72a1.74 1.74 0 0 1-.6-.11.06.06 0 0 1  0-.06.03 0-180 0 0  .06 0 1.76 1.76 0 0 0  1.54-.23.03 0-180 0 0  .06 0 .03 0-90 0 0  0 .06 2 2 0 0 1-1.06.34z" fill="#292966"/>
      <path d="m23 33.11a1.72 1.72 0 0 1-1-.32.03 0 90 0 0  0-.06c0 0 0 0 .06 0a1.68 1.68 0 0 0 2 0c0 0 0 0 .06 0a .03 0-90 0 0 0 .06 2 2 0 0 1-1.12.32z" fill="#292966"/>
      <path d="m25 33.11a1.77 1.77 0 0 1-1-.32c0 0 0 0 0-.06a.03 0-180 0 0  .06 0 1.66 1.66 0 0 0  2 0 .03 0-180 0 0  .06 0c0 0 0 .05 0 .06a2 2 0 0 1-1.12.32z" fill="#292966"/>
      <path d="m27 33.11a1.72 1.72 0 0 1-1-.32c0 0 0 0 0-.06 0-.06 0 0 .06 0a1.68 1.68 0 0 0 2 0c0 0 0 0 .06 0a .03 0-90 0 0 0 .06 2 2 0 0 1-1.12.32z" fill="#292966"/>
      <path d="m29.06 33.11a1.77 1.77 0 0 1-1-.32.03 0 90 0 0  0-.06.035 0-180 0 0  .07 0 1.66 1.66 0 0 0  1.95 0 .03 0-180 0 0  .06 0c0 0 0 .05 0 .06a2 2 0 0 1-1.08.32z" fill="#292966"/>
      <path d="m31.07 33.11a1.72 1.72 0 0 1-1-.32c0 0 0 0 0-.06 0-.06 0 0 .06 0a1.68 1.68 0 0 0 2 0c0 0 0 0 .06 0a .03 0-90 0 0 0 .06 2 2 0 0 1-1.12.32z" fill="#292966"/>
      <path d="m32.78 33.09v0a1.54 1.54 0 0 1-.7-.29c0 0 0 0 0-.06a.03 0-180 0 0  .06 0 1.5 1.5 0 0 0  .66.28c0 0 0 0 0 0z" fill="#292966"/>
      <path d="m21.41 33.06c0 0 0 0 0 0 0 0 0-.05 0-.05a2.23 2.23 0 0 0  .6-.26.03 0-180 0 0  .06 0c0 0 0 .05 0 .06a2.14 2.14 0 0 1-.63.27z" fill="#292966"/>
      <path d="m23 33.52a1.67 1.67 0 0 1-.42-.05c0 0 0 0 0 0 0 0 0 0 .05 0a1.72 1.72 0 0 0 1.37-.35c0 0 0 0 .06 0a .03 0-90 0 0 0 .06 2 2 0 0 1-1.06.34z" fill="#292966"/>
      <path d="m25 33.52a1.77 1.77 0 0 1-1-.32.035 0 90 0 0  0-.07.03 0-180 0 0  .06 0 1.65 1.65 0 0 0  2 0 .03 0-180 0 0  .06 0c0 0 0 0 0 .06a2 2 0 0 1-1.12.33z" fill="#292966"/>
      <path d="m27 33.52a1.72 1.72 0 0 1-1-.32.035 0 90 0 0  0-.07c0 0 0 0 .06 0a1.67 1.67 0 0 0 2 0c0 0 0 0 .06 0a .03 0-90 0 0 0 .06 2 2 0 0 1-1.12.33z" fill="#292966"/>
      <path d="m29.06 33.52a1.77 1.77 0 0 1-1-.32.06.06 0 0 1  0-.07c0 0 .05 0 .07 0a1.65 1.65 0 0 0 1.95 0 .03 0-180 0 0  .06 0c0 0 0 0 0 .06a2 2 0 0 1-1.08.33z" fill="#292966"/>
      <path d="m31.06 33.52a1.67 1.67 0 0 1-1-.32.035 0 90 0 0  0-.07c0 0 0 0 .06 0a1.68 1.68 0 0 0 1.3.27.03 0-180 0 0  .06 0c0 0 0 0 0 0a1.69 1.69 0 0 1-.42.12z" fill="#292966"/>
      <path d="m23.51 34c0 0 0 0 0 0a2 2 0 0 0  .52-.24c0 0 0 0 .06 0 .06 0 0 0 0 .06a2.28 2.28 0 0 1-.53.24z" fill="#292966"/>
      <path d="m25 34a1.66 1.66 0 0 1-1-.33c0 0 0 0 0-.06 0-.06 0 0 .06 0a1.64 1.64 0 0 0 2 0 .03 0-180 0 0  .06 0 .03 0-90 0 0  0 .06 2 2 0 0 1-1.12.33z" fill="#292966"/>
      <path d="m27 34a1.62 1.62 0 0 1-1-.33.03 0 90 0 0  0-.06.03 0-180 0 0  .06 0 1.66 1.66 0 0 0  2 0c0 0 0 0 .06 0 .06 0 0 0 0 .06a2 2 0 0 1-1.12.33z" fill="#292966"/>
      <path d="m29.06 34a1.66 1.66 0 0 1-1-.33c0 0 0 0 0-.06a.06.06 0 0 1  .07 0 1.64 1.64 0 0 0  1.95 0 .03 0-180 0 0  .06 0 .03 0-90 0 0  0 .06 2 2 0 0 1-1.08.33z" fill="#292966"/>
      <path d="m30.49 33.93v0a1.15 1.15 0 0 1-.4-.22.03 0 90 0 0  0-.06.03 0-180 0 0  .06 0 1.12 1.12 0 0 0  .38.21.05.05 0 0 1-.04.07z" fill="#292966"/>
      <path d="m25 34.64a1.84 1.84 0 0 1-.33 0c0 0 0 0 0 0a1.76 1.76 0 0 0 1.33-.4.03 0-180 0 0  .06 0c0 0 0 .05 0 .06a2 2 0 0 1-1.06.34z" fill="#292966"/>
      <path d="m27 34.64a1.62 1.62 0 0 1-1-.33.03905125 0 129.80557 0 0  .05-.06 1.67 1.67 0 0 0  2 0c0 0 0 0 .06 0a .03 0-90 0 0 0 .06 2 2 0 0 1-1.11.33z" fill="#292966"/>
      <path d="m29.05 34.64a1.61 1.61 0 0 1-1-.33c0 0 0 0 0-.06a.035 0-180 0 0  .07 0 1.63 1.63 0 0 0  1.06.3z" fill="#292966"/>
      <path d="m21 32a .07.07 0 0 1-.07-.06v-.52a.07.07 0 0 1  .07-.06.06.06 0 0 1  .06.06v.58a.06.06 0 0 1-.06 0z" fill="#292966"/>
      <path d="m21.35 32a .07.07 0 0 1-.06-.07v-.71a.07.07 0 0 1  .06-.07.07.07 0 0 1  .07.07v.78a.07.07 0 0 1-.07 0z" fill="#292966"/>
      <path d="m21.73 32c0 0-.07 0-.07-.06v-1a .07.07 0 0 1  .07-.06.06.06 0 0 1  .06.06v1a .06.06 0 0 1-.06.06z" fill="#292966"/>
      <path d="m22.1 32a .07071068.07071068 0 0 1-.1-.1v-1.32a.07.07 0 0 1  .07-.06.06.06 0 0 1  .06.06v1.32a.07.07 0 0 1-.03.1z" fill="#292966"/>
      <path d="m22.59 32a .07.07 0 0 1-.07-.06v-1.94a.07.07 0 0 1  .07-.06.06.06 0 0 1  .06.06v1.9a.06.06 0 0 1-.06.1z" fill="#292966"/>
      <path d="m23.47 32c0 0-.07 0-.07-.06v-1.94a.07.07 0 0 1  .07-.06.06.06 0 0 1  .06.06v1.94a.06.06 0 0 1-.06.06z" fill="#292966"/>
      <path d="m24 32a .07.07 0 0 1-.07-.07v-1.61a.07.07 0 0 1  .07-.07.07.07 0 0 1  .06.07v1.58a.07.07 0 0 1-.06.1z" fill="#292966"/>
      <path d="m24.32 32a .06.06 0 0 1-.06-.06v-1.43a.07.07 0 0 1  .06-.07.07.07 0 0 1  .07.07v1.38c0 0-.03.11-.07.11z" fill="#292966"/>
      <path d="m24.68 32c0 0-.06 0-.06-.07v-1.21a.06.06 0 0 1  .12 0v1.21c0 0-.02.07-.06.07z" fill="#292966"/>
      <path d="m25 32c0 0 0 0 0-.06v-1a .07.07 0 0 1  .07-.06.06.06 0 0 1  .06.06v1a .07158911.07158911 0 0 1-.13.06z" fill="#292966"/>
      <path d="m25.35 32a .07.07 0 0 1-.07-.06v-.85a.07.07 0 0 1  .07-.07.07.07 0 0 1  .06.07v.85a.06.06 0 0 1-.06.06z" fill="#292966"/>
      <path d="m25.73 32.05c0 0-.07 0-.07-.06v-.78a.07.07 0 0 1  .07-.07.07.07 0 0 1  .06.07v.79a.06.06 0 0 1-.06.05z" fill="#292966"/>
      <path d="m26 32a .06.06 0 0 1-.06-.06v-.61a.06.06 0 0 1  .06-.06.07.07 0 0 1  .07.06v.61a.07.07 0 0 1-.07.06z" fill="#292966"/>
      <path d="m26.4 32a .07.07 0 0 1-.06-.07v-.57a.06.06 0 0 1  .06-.06.07.07 0 0 1  .07.06v.64a.07.07 0 0 1-.07 0z" fill="#292966"/>
      <path d="m26.75 32a .07.07 0 0 1-.06-.07v-.49a.07.07 0 0 1  .06-.07.07.07 0 0 1  .07.07v.56a.07.07 0 0 1-.07 0z" fill="#292966"/>
      <path d="m27.08 32a .06.06 0 0 1-.06-.06v-.46a.06.06 0 0 1  .06-.06.07.07 0 0 1  .07.06v.46a.07.07 0 0 1-.07.06z" fill="#292966"/>
      <path d="m27.46 32.06a.06.06 0 0 1-.06-.06v-.57a.06.06 0 0 1  .06-.06.07.07 0 0 1  .07.06v.57a.07.07 0 0 1-.07.06z" fill="#292966"/>
      <path d="m27.79 32a .07.07 0 0 1-.07-.07v-.53a.07.07 0 0 1  .07-.07.07.07 0 0 1  .06.07v.6a.07.07 0 0 1-.06 0z" fill="#292966"/>
      <path d="m28.16 32.06a.07.07 0 0 1-.07-.06v-.67c0 0 0-.06.07-.06a.06.06 0 0 1  .06.06v.67a.06.06 0 0 1-.06.06z" fill="#292966"/>
      <path d="m28.52 32.05a.07.07 0 0 1-.06-.07v-.77a.07.07 0 0 1  .06-.07.07.07 0 0 1  .07.07v.79a.07.07 0 0 1-.07.05z" fill="#292966"/>
      <path d="m28.86 32a .07.07 0 0 1-.06 0v-.81a.06.06 0 0 1  .06-.06.07.07 0 0 1  .07.06v.81a.07.07 0 0 1-.07 0z" fill="#292966"/>
      <path d="m29.19 32a .07.07 0 0 1-.06-.07v-1a .06.06 0 0 1  .06-.06c0 0 .07 0 .07.06v1a .07.07 0 0 1-.07.07z" fill="#292966"/>
      <path d="m29.56 32a .07.07 0 0 1-.07-.06v-1.2a.07.07 0 0 1  .07-.07.07.07 0 0 1  .06.07v1.18a.06.06 0 0 1-.06.08z" fill="#292966"/>
      <path d="m29.9 32a .07.07 0 0 1-.06-.07v-1.43a.07.07 0 0 1  .06-.07.07.07 0 0 1  .07.07v1.41a.07.07 0 0 1-.07.09z" fill="#292966"/>
      <path d="m30.24 32c0 0-.07 0-.07-.06v-1.71a.07.07 0 0 1  .07-.06.06.06 0 0 1  .06.06v1.71a.06.06 0 0 1-.06.06z" fill="#292966"/>
      <path d="m30.6 32a .07.07 0 0 1-.07-.07v-1.93a.07.07 0 0 1  .07-.06.06.06 0 0 1  .06.06v1.9a.07.07 0 0 1-.06.1z" fill="#292966"/>
      <path d="m31.6 32a .06.06 0 0 1-.06-.06v-1.86a.06.06 0 0 1  .06-.08.07.07 0 0 1  .07.06v1.86c0 0-.03.08-.07.08z" fill="#292966"/>
      <path d="m32 32a .07.07 0 0 1-.07-.07v-1.42a.07.07 0 0 1  .07-.06.06.06 0 0 1  .06.06v1.42a.07.07 0 0 1-.06.07z" fill="#292966"/>
      <path d="m32.3 32a .06.06 0 0 1-.06-.06v-1.12a.06.06 0 0 1  .06-.06.07.07 0 0 1  .07.06v1.18a.07.07 0 0 1-.07 0z" fill="#292966"/>
      <path d="m32.66 32a .06.06 0 0 1-.06 0v-.83a.07.07 0 0 1  .06-.07.07.07 0 0 1  .07.07v.83a.07.07 0 0 1-.07 0z" fill="#292966"/>
      <path d="m33 32.07a.07.07 0 0 1 0-.07v-.66a.07.07 0 0 1  .06-.07.07.07 0 0 1  .07.07v.66a.07382412.07382412 0 0 1-.13.07z" fill="#292966"/>
      <path d="m33.34 32a .07.07 0 0 1-.07-.06v-.4a.07.07 0 0 1  .07-.06.06.06 0 0 1  .06.06v.4a.06.06 0 0 1-.06.06z" fill="#292966"/>
      <path d="m27.11 20.19a9 9 0 1 0 9 9 9 9 0 0 0-9-9zm0 17a8 8 0 1 1 8-8 8 8 0 0 1-8 8.01z" fill="#292966"/>
      <path d="m27.11 17.17a12 12 0 1 0 12 12 12 12 0 0 0-12-12zm0 22.27a10.24 10.24 0 1 1 10.24-10.23 10.24 10.24 0 0 1-10.24 10.23z" fill="#b21b1b"/>
      <path d="m28 13.46a.25.25 0 0 0-.09-.13h-.14a9.26 9.26 0 0 0-1.29 0h-.13v0a .17.17 0 0 0-.08.12l-1.3 4.83h4.35z" fill="#b21b1b"/>
      <path d="m26.24 44.92a.2.2 0 0 0  .08.12v0h .05.05a11.22 11.22 0 0 0 1.3 0h .14a.27.27 0 0 0  .09-.12l1.3-4.83h-4.31z" fill="#b21b1b"/>
      <path d="m34.8 15.43a.17.17 0 0 0 0-.14v0 0 0 0 0a8.33 8.33 0 0 0-1.16-.57h-.06-.09a.17.17 0 0 0-.13.07l-3.29 3.77 3.91 1.91z" fill="#b21b1b"/>
      <path d="m19.42 42.94a.21.21 0 0 0 0 .15v0 0 0a12.5 12.5 0 0 0 1.16.57h.16a.24.24 0 0 0  .13-.07l3.28-3.77-3.78-1.82z" fill="#b21b1b"/>
      <path d="m40 20.11a.18.18 0 0 0 0-.11v0 0c0 0 0 0 0-.05v-.05a9.07 9.07 0 0 0-.8-1c0 0 0 0 0 0v0 0h-.05a.23.23 0 0 0-.14 0l-4.6 2 2.59 3.23z" fill="#b21b1b"/>
      <path d="m14.23 38.26a.23.23 0 0 0 0 .14v0 0 0 0 0a10.5 10.5 0 0 0  .8 1v0 0 0h .05a.26.26 0 0 0  .15 0l4.59-2-2.7-3.42z" fill="#b21b1b"/>
      <path d="m42.66 26.62a.22.22 0 0 0  .1-.11v0-.12a10.39 10.39 0 0 0-.28-1.27v-.05 0 0 0 0a .19.19 0 0 0-.13 0l-5-.22.94 4.24z" fill="#b21b1b"/>
      <path d="m11.57 31.75a.16.16 0 0 0-.1.11v0 0 .14a10 10 0 0 0  .28 1.27v0 0 0 0 0a .3.3 0 0 0  .14.06l5 .22-.89-4.12z" fill="#b21b1b"/>
      <path d="m42.26 33.53a.19.19 0 0 0  .13-.05v0 0 0 0c0 0 0 0 0 0a11.63 11.63 0 0 0  .29-1.26v-.22 0 0c0 0 0 0 0 0a .18.18 0 0 0-.1-.11l-4.42-2.34-1 4.24z" fill="#b21b1b"/>
      <path d="m12 24.84a.18.18 0 0 0-.14.06v0 .05c0 0 0 0 0 0a8.27 8.27 0 0 0-.29 1.26.15.15 0 0 0  0 .06v0 .06a.26.26 0 0 0  .1.11l4.33 2.45 1-4.25z" fill="#b21b1b"/>
      <path d="m38.82 39.73a.26.26 0 0 0  .15 0v0 0 0a9.18 9.18 0 0 0  .81-1v0 0 0 0a .23.23 0 0 0 0-.14l-3-4-2.73 3.39z" fill="#b21b1b"/>
      <path d="m15.4 18.64a.19.19 0 0 0-.15 0v0 0 0a11.92 11.92 0 0 0-.81 1v .05 0 0 0a .18.18 0 0 0 0 .14l2.94 4 2.62-3.17z" fill="#b21b1b"/>
      <path d="m33.2 43.72a.21.21 0 0 0  .13.07h.14a10.37 10.37 0 0 0 1.17-.56v0 0 0 0 0a .25.25 0 0 0 0-.15l-.81-5.08-3.91 1.9z" fill="#b21b1b"/>
      <path d="m21 14.65a.21.21 0 0 0-.13-.07h-.14a9 9 0 0 0-1.17.57v0 0 0 0 0a .22.22 0 0 0 0 .14l.94 4.91 3.91-1.9z" fill="#b21b1b"/>
      <path d="m17.21 45.08a17.83 17.83 0 0 0 2 1.09l3.53 9.46v-8.25a12.9 12.9 0 0 0 1.7.33v14.35l-1.85-1.78-3.68-10.21v5.93l-1.72-2.28z" fill="#292966"/>
      <path d="m26.35 47.87a15.06 15.06 0 0 0 1.84 0v14.63h-1.86z" fill="#292966"/>
      <path d="m30.08 47.66a19.16 19.16 0 0 0 6.08-2.07v1.8a20.57 20.57 0 0 1-4.23 1.79v2.88l4-2.6v1.76l-4 3v3.15a29.5 29.5 0 0 0 4.24-3.88v2.15a61.74 61.74 0 0 1-6.09 6z" fill="#292966"/>
   </g>
</svg>
